# xmcd
#
# Track frame offsets: 
#        150
#        10901
#        27054
#        39908
#        53888
#        64928
#        82105
#        104499
#        114814
#        136120
#        160504
#        179301
#        200860
#        223886
#        240345
#        264815
#        284278
#        306826
#        317486
#        339600
#
# Disc length: 4708 seconds
#
# Revision: 1
# Processed by: cddbd v1.5.2PL0 Copyright (c) Steve Scherf et al.
# Submitted via: ExactAudioCopy v1.0b3
#
DISCID=10126214
DTITLE=Various Artist - Bielszy Odcien Bluesa
DYEAR=2002
DGENRE=Blues
TTITLE0=Stevie Ray Vaughan and Double Trouble - The House Is Rockin'
TTITLE1=Muddy Waters - The Blues Had A Baby And They Named It Rock And
TTITLE1=Roll
TTITLE2=Eric Clapton - Give Me Strenght
TTITLE3=Paul Butterfield Blues Band - Born In Chicago
TTITLE4=Lee Hooker - Bottle Up And Go
TTITLE5=Fleetwood Mac - Need You Love So Bad
TTITLE6=John Mayall - Room To Move
TTITLE7=Buddy Gay - First Time I Met The Blues
TTITLE8=Lynyrd Skynyrd - Sweet Home Alabama
TTITLE9=B.B. King - The Thrill Is Gone
TTITLE10=Cream - Sunshine Of Your Love
TTITLE11=Allman Brothers Band - Ramblin' Man
TTITLE12=J.J. Cale - Sensitive Kind
TTITLE13=Blues Band - Sure Feels Good
TTITLE14=Dzem - Skazany na bluesa
TTITLE15=Allman Brothers Band - Statesboro Blues
TTITLE16=Stevie Ray Vaughan and Double Trouble - Dirty Pool
TTITLE17=J.J. Cale - After Midnight
TTITLE18=Canned Heat - On The Road Again
TTITLE19=ZZ Top - Can't Stop Rockin'
EXTD=
EXTT0=
EXTT1=
EXTT2=
EXTT3=
EXTT4=
EXTT5=
EXTT6=
EXTT7=
EXTT8=
EXTT9=
EXTT10=
EXTT11=
EXTT12=
EXTT13=
EXTT14=
EXTT15=
EXTT16=
EXTT17=
EXTT18=
EXTT19=
PLAYORDER=
